<svg width="162" height="72" viewBox="0 0 162 72" fill="none" xmlns="http://www.w3.org/2000/svg">
<g filter="url(#filter0_d)">
<path d="M63.3411 43.1507C62.6031 43.0641 61.8564 43.196 61.1891 43.5308C61.1891 43.5308 58.1865 46.1093 43.3332 43.1404C32.4134 40.9523 26.7384 41.1783 26.7384 41.1783C26.7384 41.1783 28.57 28.3371 28.0695 24.7415C28.0466 24.4763 27.9242 24.2306 27.7281 24.0562C27.532 23.8818 27.2777 23.7923 27.0186 23.8067C25.9276 23.8067 25.267 24.2382 25.267 24.834C25.3606 27.2614 25.277 29.6926 25.0168 32.1072C24.5634 33.3829 23.7122 34.4692 22.5955 35.1974C21.4788 35.9256 20.1591 36.255 18.8413 36.1342C14.087 35.7952 13.0862 32.2819 12.6658 29.8883C12.2454 27.4947 12.0052 20.807 13.2563 18.0744C13.2563 18.0744 20.4227 18.3312 24.9267 14.3864C29.4308 10.4416 29.1505 7.03093 27.0186 5.57217C24.8867 4.11341 19.8922 4.37024 16.0588 7.96577C13.8578 9.93907 12.1197 12.3973 10.9743 15.1569C10.9743 15.1569 5.33923 13.9241 6.63038 7.88359C8.00161 1.57599 16.3991 2.31564 16.3991 2.31564C18.1507 2.66492 18.2307 2.82929 18.8113 2.23346C19.3918 1.63763 19.8122 0.0966821 17.0597 0.00422536C14.3072 -0.0882313 6.04986 1.30889 4.46845 6.93848C2.77694 12.9276 5.89973 17.2114 10.0935 17.8792C10.0935 17.8792 7.80143 28.2549 10.634 33.3914C11.4191 35.0146 12.6566 36.3617 14.1892 37.2616C15.7218 38.1615 17.4804 38.5736 19.2417 38.4457C20.8931 38.4457 23.8157 37.5005 24.6465 36.1342C24.6465 36.1342 24.2561 39.812 23.9258 41.1475C23.9258 41.1475 16.9796 41.055 14.8077 42.1748C11.1144 44.178 11.8851 48.8727 13.3063 50.5369C14.5074 51.9546 18.1207 52.7251 20.733 51.4615C22.2281 50.723 23.5196 49.6125 24.4898 48.2309C25.46 46.8494 26.0781 45.2407 26.288 43.5513C30.5142 43.3281 34.748 43.7998 38.8292 44.9485C45.0047 46.8387 53.6024 48.6056 56.1847 48.6056C58.767 48.6056 64.1918 47.8454 64.5221 45.6367C64.7023 44.178 64.1718 43.4178 63.3411 43.1507ZM19.8722 8.81843C19.8722 8.81843 23.1552 6.25019 24.7266 7.85277C25.0794 8.24335 25.2828 8.75163 25.2993 9.28397C25.3159 9.81632 25.1445 10.3369 24.8166 10.7497C24.156 11.6332 22.4145 14.4275 14.1471 15.8143C14.1471 15.8143 16.7494 11.1298 19.8722 8.81843ZM20.1425 48.7905C20.1425 48.7905 15.6084 51.328 15.138 47.8865C14.9562 47.1689 15.0201 46.409 15.3189 45.7339C15.6177 45.0588 16.1333 44.5096 16.7795 44.178C17.5702 43.7773 18.6511 43.274 23.3653 43.4486C23.3125 44.5462 22.9891 45.6121 22.4254 46.5464C21.8617 47.4807 21.0762 48.2528 20.1425 48.7905Z" fill="#FBFCFB"/>
<path d="M77.6439 24.382C77.6439 26.7037 77.6439 29.0151 77.6439 31.3368C77.6439 31.3368 77.6439 31.419 77.6439 31.46C77.5647 32.3848 77.2694 33.2764 76.7831 34.0591C76.4757 34.6276 76.0763 35.1382 75.602 35.5692C75.0716 36.0418 74.7212 34.9837 74.5211 34.5419C73.1298 31.5525 73.8004 27.546 74.3409 24.4128C74.5911 22.9129 71.6285 23.3033 71.3983 24.6388C70.8584 27.3095 70.6732 30.043 70.8478 32.7647C70.5854 32.7859 70.3304 32.8637 70.0993 32.9929C69.8682 33.1221 69.6662 33.2999 69.5066 33.5146C68.9961 34.6344 67.5048 38.3532 65.6731 36.8636C64.352 35.8363 64.2118 33.0215 64.0717 31.4498C63.9123 29.2711 64.1916 27.082 64.8925 25.0189C64.8324 25.1935 66.0335 22.1116 66.5639 23.2622C66.7074 23.8105 66.7269 24.3852 66.6211 24.9424C66.5153 25.4997 66.2869 26.0248 65.9534 26.4777C64.382 27.6899 66.8242 28.1932 67.775 27.4536C69.5766 26.0667 70.7777 21.5877 67.705 21.0535C64.2319 20.4577 62.2601 24.0532 61.5294 26.9091C61.1421 28.5492 60.9738 30.2357 61.029 31.9223C60.5486 32.7853 58.9271 35.559 57.9763 36.0315C56.8553 36.6273 56.8753 35.7952 56.9153 35.261C56.9554 34.7269 57.4558 29.9705 57.726 26.7653C57.9629 25.4929 57.7871 24.1758 57.2256 23.0157C56.7952 22.1219 53.222 20.1187 50.0792 23.8786C48.3087 25.8622 47.2252 28.3898 46.9965 31.0697C46.7863 31.5011 46.5561 31.9634 46.2858 32.4668C44.7845 35.2919 42.8928 36.4835 42.2222 34.5214C41.5477 32.4775 41.2921 30.3125 41.4715 28.1624C43.8038 24.4569 45.5156 20.377 46.536 16.0917C48.0374 9.2499 47.7571 5.84954 46.9464 5.27426C46.1357 4.69897 42.6926 3.2813 40.6208 11.6949C39.0837 17.6814 38.5456 23.8919 39.0293 30.0629C38.7091 30.7615 38.3087 31.6039 37.7982 32.5593C36.2969 35.3843 34.4152 36.576 33.7346 34.6138C33.0736 32.567 32.8317 30.4021 33.024 28.2549C35.3562 24.5494 37.068 20.4695 38.0885 16.1841C39.6399 9.2499 39.3296 5.84954 38.5189 5.27426C37.7082 4.69897 34.2651 3.2813 32.2032 11.6949C30.1414 20.1084 29.731 29.2822 31.7028 35.446C31.7028 35.446 32.7838 38.9182 34.8056 38.6614C36.4771 38.4457 38.4688 36.7609 39.6399 33.6174C39.7723 34.2352 39.936 34.8456 40.1303 35.446C40.1303 35.446 41.2113 38.9182 43.2331 38.6614C44.6043 38.4868 46.2358 37.3054 47.3768 35.148C48.0874 37.028 49.6188 38.5792 51.5906 38.2299C54.263 37.7368 54.8134 36.2472 54.8134 36.2472C54.8134 36.2472 54.7634 38.6922 56.4749 38.6922C57.9963 38.6922 59.2074 37.7779 60.4084 35.446C60.8188 34.6549 61.059 34.1927 61.1891 33.9256C61.5395 36.1342 62.4303 38.0964 64.1918 38.8874C67.1945 40.2229 69.8169 37.6855 71.3582 35.1789C71.5558 35.7829 71.878 36.3361 72.303 36.8006C72.7279 37.2651 73.2455 37.63 73.8204 37.8704C74.4759 38.0818 75.1752 38.1045 75.8424 37.936C76.5095 37.7676 77.1188 37.4144 77.6038 36.915V40.5311C77.0551 40.5011 76.5114 40.6523 76.0524 40.9625C74.5201 42.253 73.3316 43.9212 72.5982 45.8112C71.8648 47.7013 71.6103 49.7513 71.8587 51.7697C71.9009 52.3158 72.0743 52.8426 72.3632 53.3032C72.6521 53.7638 73.0476 54.1438 73.5145 54.4093C73.9813 54.6749 74.5049 54.8176 75.0386 54.8249C75.5722 54.8321 76.0994 54.7037 76.5729 54.451C79.6757 53.0641 80.1461 48.2872 80.4063 45.3696C81.0369 38.3532 80.5464 31.0491 80.5464 24.0121C80.5464 22.7178 77.6439 23.3239 77.6439 24.382ZM34.2751 12.8763C34.9657 10.1539 35.6063 9.06498 36.2769 9.06498C36.9475 9.06498 37.2077 9.79436 36.7373 12.1469C35.8645 16.659 34.491 21.0536 32.6436 25.2449C32.6436 25.2449 33.5845 15.6089 34.2751 12.8763ZM42.7026 12.8763C43.3932 10.1539 44.0338 9.06498 44.6544 9.06498C45.2749 9.06498 45.5952 9.79436 45.1248 12.1469C44.6544 14.4994 43.123 21.0022 41.0311 25.2449C41.0311 25.2449 42.032 15.6089 42.7026 12.8763ZM55.5741 25.6866C55.4941 26.2825 55.1137 30.0937 54.5732 32.1483C54.0327 34.2029 53.6624 34.9323 52.041 35.6411C50.4195 36.35 49.5988 34.1824 49.5988 34.1824C48.4478 30.895 49.9891 28.0186 51.2703 26.0462C52.5514 24.0738 53.8426 23.8991 54.5832 23.9916C54.7568 24.036 54.9201 24.1152 55.0638 24.2244C55.2076 24.3337 55.3289 24.4709 55.4209 24.6284C55.513 24.7858 55.5739 24.9603 55.6001 25.1418C55.6264 25.3234 55.6176 25.5086 55.5741 25.6866ZM77.5638 44.178C77.6242 46.9398 77.0839 49.6807 75.9824 52.2012C75.2817 52.345 74.9815 52.0779 74.7413 50.9273C74.5761 49.8209 74.5761 48.6951 74.7413 47.5886C75.0686 45.5562 76.0479 43.6942 77.5237 42.298C77.5738 42.9452 77.5738 43.5719 77.5638 44.178Z" fill="#FBFCFB"/>
<path d="M96.3806 21.4747C95.0788 20.8853 93.9035 20.0372 92.9227 18.9793C91.9418 17.9214 91.1746 16.6746 90.6655 15.3109C89.3843 11.3867 93.5881 8.4897 96.9411 8.66434C100.294 8.83898 102.086 12.3832 101.946 15.5575C101.886 16.6772 101.195 19.2044 99.8437 17.8895C98.9501 16.8485 98.4032 15.5422 98.2823 14.1604C98.0821 12.9173 95.1795 13.657 95.3797 14.9617C95.9602 18.7216 99.9037 22.8616 103.287 18.927C103.979 18.0362 104.466 16.9962 104.711 15.8848C104.955 14.7735 104.952 13.6197 104.701 12.5099C104.45 11.4 103.957 10.363 103.259 9.47639C102.562 8.5898 101.678 7.87669 100.674 7.39049C98.4096 6.48529 95.905 6.43566 93.6078 7.25044C91.3107 8.06522 89.3703 9.6914 88.1332 11.8387C85.4008 16.8211 90.8857 21.6905 94.7692 23.4677C101.005 26.8886 101.235 37.9012 92.9475 37.9731C91.245 37.933 89.5951 37.3594 88.2193 36.3293C86.8436 35.2991 85.8077 33.8617 85.2506 32.21C84.6801 30.4841 84.9704 24.4539 87.2524 23.9916C89.0641 23.632 88.5736 21.937 86.802 22.2555C83.0887 22.9951 81.7175 27.9159 82.0778 31.3573C82.6583 36.8431 87.6628 39.9147 92.7173 39.8736C94.9535 39.9395 97.1417 39.2 98.9022 37.7833C100.663 36.3666 101.885 34.3621 102.356 32.1175C102.728 29.9065 102.334 27.6317 101.242 25.6876C100.151 23.7436 98.4309 22.2531 96.3806 21.4747Z" fill="#FBFCFB"/>
<path d="M114.977 37.7985C112.125 36.1959 113.756 30.0218 114.187 27.6488C114.467 26.1181 115.738 23.7553 113.696 23.2314C111.304 22.6356 108.461 24.9675 106.41 27.1968C106.408 24.6249 106.592 22.0565 106.96 19.5126C110.125 17.8918 112.659 15.2147 114.146 11.9209C115.448 9.2499 116.088 3.70249 111.684 5.32562C107.681 6.76384 106.309 11.4894 105.058 15.2801C104.586 16.7464 104.221 18.247 103.967 19.7694C103.568 19.9414 103.161 20.0923 102.746 20.2214C101.085 20.7556 101.305 21.6699 102.987 21.1357L103.797 20.8686C102.997 26.6318 103.537 32.6723 104.047 38.3327C104.047 38.8874 107.05 38.3327 106.94 37.5314C106.72 35.0042 106.53 32.4771 106.45 29.9705C106.691 29.8979 106.909 29.7595 107.08 29.5698C108.001 28.3831 109.034 27.2924 110.163 26.3133C110.463 26.0359 110.773 25.7791 111.084 25.5325L111.544 25.1833C112.215 24.6388 112.345 24.6285 111.924 25.1833C111.768 26.1629 111.56 27.1333 111.304 28.0905C110.753 31.1724 109.172 37.2232 112.645 39.1648C113.396 39.5551 116.098 38.4046 114.977 37.7985ZM108.481 13.0303C108.792 12.1161 109.202 11.212 109.582 10.3286C110.053 9.21908 111.314 5.42835 112.225 7.24667C112.955 8.69516 111.804 11.0682 111.294 12.4551C110.49 14.6234 109.102 16.5119 107.29 17.8997C107.582 16.2514 107.98 14.6248 108.481 13.0303Z" fill="#FBFCFB"/>
<path d="M125.737 30.5971C125.737 27.2173 125.367 22.8821 121.433 22.5226C117.119 22.1219 115.428 26.755 115.368 30.217C115.361 30.3395 115.392 30.4611 115.454 30.5657C115.517 30.6702 115.609 30.7528 115.718 30.8026C115.718 34.0386 116.479 38.2607 120.232 38.1888C124.416 38.1272 125.737 34.3776 125.737 30.5971ZM120.732 36.2267C118.29 35.1994 118.51 30.8745 118.671 28.7891C118.685 28.6843 118.671 28.5773 118.628 28.4808C118.585 28.3843 118.517 28.3024 118.43 28.2446C118.731 26.19 119.511 23.1081 121.293 24.6388C122.714 25.8921 122.744 28.9021 122.814 30.6382C122.874 31.8504 122.724 36.9869 120.742 36.2267H120.732Z" fill="#FBFCFB"/>
<path d="M157.265 49.1398C156.144 46.1812 153.682 45.0306 150.969 44.9074C150.667 44.1563 150.287 43.4401 149.838 42.7706C145.925 36.8225 136.637 37.6341 130.341 40.716C130.341 39.7812 130.251 38.8463 130.211 37.9115C131.463 38.0153 132.721 37.7863 133.862 37.2465C135.003 36.7067 135.99 35.8743 136.727 34.8296C138.398 32.3743 138.158 28.0186 137.497 25.2654C136.877 22.6767 134.415 23.1389 132.563 24.0019C131.882 24.333 131.254 24.7696 130.701 25.2963C130.701 24.608 130.811 23.9094 130.861 23.2417C130.972 21.6596 128.019 22.0603 127.919 23.4574C127.458 29.8164 127.619 36.1548 127.478 42.5035C125.702 44.0013 124.291 45.9041 123.358 48.0604C122.425 50.2166 121.996 52.5667 122.104 54.9235C122.104 57.2555 124.035 59.0327 126.107 57.3685C129 55.0879 129.881 50.5575 130.281 47.0955C130.445 45.5504 130.498 43.995 130.441 42.4419C132.698 40.9228 135.334 40.105 138.033 40.0868C140.732 40.0685 143.378 40.8507 145.655 42.3391C146.632 43.0474 147.415 44.0028 147.927 45.1128C146.326 45.4066 144.771 45.9179 143.303 46.6332C141.591 47.4756 139.049 49.4686 139.169 51.6978C139.149 52.4032 139.366 53.0941 139.784 53.655C140.201 54.216 140.793 54.613 141.461 54.7797C141.552 54.8272 141.65 54.8584 141.751 54.8721C147.897 55.8994 152.471 52.1703 151.59 46.9209C154.593 48.5954 155.704 52.4785 154.643 55.8173C152.251 63.3165 143.042 64.991 137.678 59.9778C137.097 59.4436 134.485 60.5736 134.945 61.0051C142.692 68.2681 161.989 61.5496 157.265 49.1398ZM127.298 47.3215C127.213 49.1354 126.827 50.9211 126.157 52.6018C125.907 53.1668 125.637 53.7113 125.346 54.2455C125.346 54.2455 125.086 54.3071 125.036 53.5058C125.032 50.6277 125.846 47.8109 127.378 45.4005C127.358 46.0374 127.338 46.6846 127.298 47.3215ZM130.431 28.974C130.489 28.9234 130.539 28.8646 130.581 28.7994C131.119 27.8692 131.757 27.0042 132.483 26.2208C133.007 25.6096 133.617 25.0831 134.294 24.6593C134.615 24.8237 134.945 25.6866 135.065 26.8475C135.375 29.7034 135.506 37.2232 131.122 36.5143C130.78 36.4987 130.438 36.5583 130.121 36.689C130.111 34.0797 130.251 31.532 130.431 28.974ZM143.523 53.362H143.463C141.781 52.9511 141.961 51.3074 142.182 50.1979C142.672 47.5989 145.755 46.2018 148.297 46.0888C149.588 49.787 148.597 54.2147 143.523 53.362Z" fill="#FBFCFB"/>
</g>
<defs>
<filter id="filter0_d" x="0" y="0" width="162" height="72" filterUnits="userSpaceOnUse" color-interpolation-filters="sRGB">
<feFlood flood-opacity="0" result="BackgroundImageFix"/>
<feColorMatrix in="SourceAlpha" type="matrix" values="0 0 0 0 0 0 0 0 0 0 0 0 0 0 0 0 0 0 127 0"/>
<feOffset dy="4"/>
<feGaussianBlur stdDeviation="2"/>
<feColorMatrix type="matrix" values="0 0 0 0 0 0 0 0 0 0 0 0 0 0 0 0 0 0 0.25 0"/>
<feBlend mode="normal" in2="BackgroundImageFix" result="effect1_dropShadow"/>
<feBlend mode="normal" in="SourceGraphic" in2="effect1_dropShadow" result="shape"/>
</filter>
</defs>
</svg>
